<?xml version="1.0" encoding="UTF-8"?>
<!-- Creator: CorelDRAW -->
<svg xmlns="http://www.w3.org/2000/svg" xml:space="preserve" width="2048px" height="2048px" style="shape-rendering:geometricPrecision; text-rendering:geometricPrecision; image-rendering:optimizeQuality; fill-rule:evenodd; clip-rule:evenodd"
viewBox="0 0 2048 2048">
 <defs>
  <style type="text/css">
   <![CDATA[
    .fil2 {fill:none}
    .fil8 {fill:#5D4037}
    .fil7 {fill:#6D4C41}
    .fil1 {fill:#E6D96A}
    .fil6 {fill:#F9A825}
    .fil0 {fill:#FFF176}
    .fil5 {fill:#58BF95;fill-rule:nonzero}
    .fil3 {fill:#0277BD;fill-rule:nonzero}
    .fil4 {fill:#E53935;fill-rule:nonzero}
   ]]>
  </style>
   <clipPath id="id0">
    <path d="M1024 0c565.541,0 1024,458.459 1024,1024 0,565.541 -458.459,1024 -1024,1024 -565.541,0 -1024,-458.459 -1024,-1024 0,-565.541 458.459,-1024 1024,-1024z"/>
   </clipPath>
 </defs>
 <g id="Layer_x0020_1">
  <metadata id="CorelCorpID_0Corel-Layer"/>
  <path class="fil0" d="M1024 0c565.541,0 1024,458.459 1024,1024 0,565.541 -458.459,1024 -1024,1024 -565.541,0 -1024,-458.459 -1024,-1024 0,-565.541 458.459,-1024 1024,-1024z"/>
  <g style="clip-path:url(#id0)">
   <g id="_308719984">
    <g>
     <polygon id="_3030867281" class="fil1" points="942.414,626.367 2078.3,1762.25 2094.59,1781.8 958.704,645.917 "/>
     <polygon id="_303086416" class="fil1" points="939.427,695.047 2075.31,1830.93 1960.51,1945.73 824.624,809.849 "/>
     <polygon id="_303086320" class="fil1" points="1294.61,1148.63 2430.49,2284.51 2429.85,2284.02 1293.97,1148.13 "/>
     <polygon id="_303086656" class="fil1" points="524.974,520.957 1660.86,1656.84 1660.86,2601.95 524.974,1466.07 "/>
     <polygon id="_303087304" class="fil1" points="1293.97,1148.13 2429.85,2284.02 2429.77,2283.95 2429.69,2283.89 2429.61,2283.83 2429.53,2283.77 2429.45,2283.71 2429.37,2283.65 2429.3,2283.59 2429.22,2283.53 1293.34,1147.64 1293.41,1147.71 1293.49,1147.77 1293.57,1147.83 1293.65,1147.89 1293.73,1147.95 1293.81,1148.01 1293.89,1148.07 "/>
     <polygon id="_303087520" class="fil1" points="1293.34,1147.64 2429.22,2283.53 2380.14,2245.83 1244.26,1109.95 "/>
     <polygon id="_303087088" class="fil1" points="697.137,936.377 1833.02,2072.26 1910.31,2149.55 774.425,1013.67 "/>
     <polygon id="_303087280" class="fil1" points="697.6,715.675 1833.48,1851.56 1739.31,1945.73 603.426,809.849 "/>
     <polygon id="_303087736" class="fil1" points="680.714,919.954 1816.59,2055.84 1833.02,2072.26 697.137,936.377 "/>
     <polygon id="_303087112" class="fil1" points="824.624,809.849 1960.51,1945.73 1944.08,1962.16 808.201,826.273 "/>
     <polygon id="_303087352" class="fil1" points="790.848,1062.94 1926.73,2198.82 1910.31,2215.24 774.425,1079.36 "/>
     <polygon id="_303087472" class="fil1" points="680.714,985.648 1816.59,2121.53 1739.31,2198.82 603.426,1062.94 "/>
     <polygon id="_303087568" class="fil1" points="834.99,1018.79 1970.87,2154.68 1926.73,2198.82 790.848,1062.94 "/>
     <polygon id="_303087640" class="fil1" points="1244.26,1109.95 2380.14,2245.83 2371.82,2253.72 2363.2,2261.16 2354.31,2268.15 2345.16,2274.7 2335.77,2280.79 2326.15,2286.43 2316.33,2291.61 2306.32,2296.33 2296.13,2300.59 2285.79,2304.39 2275.31,2307.72 2264.7,2310.59 2253.99,2312.98 2243.19,2314.91 2232.32,2316.36 2221.4,2317.33 2210.44,2317.82 2199.45,2317.84 2188.46,2317.37 2177.49,2316.41 2166.54,2314.97 2155.65,2313.04 2144.81,2310.61 2134.06,2307.7 2123.4,2304.28 2112.86,2300.37 2102.45,2295.95 2092.19,2291.04 2082.09,2285.61 2072.18,2279.68 2062.47,2273.24 2052.97,2266.29 917.088,1130.41 926.586,1137.36 936.3,1143.8 946.214,1149.73 956.31,1155.15 966.57,1160.07 976.98,1164.49 987.522,1168.4 998.178,1171.81 1008.93,1174.73 1019.77,1177.15 1030.66,1179.09 1041.61,1180.53 1052.58,1181.48 1063.57,1181.95 1074.55,1181.94 1085.52,1181.45 1096.44,1180.47 1107.31,1179.02 1118.11,1177.1 1128.82,1174.71 1139.43,1171.84 1149.91,1168.51 1160.25,1164.71 1170.44,1160.45 1180.45,1155.72 1190.27,1150.54 1199.89,1144.91 1209.28,1138.81 1218.43,1132.27 1227.32,1125.27 1235.94,1117.83 "/>
     <polygon id="_303087064" class="fil1" points="958.704,645.917 2094.59,1781.8 2134.41,1829.59 998.53,693.708 "/>
     <polygon id="_303088552" class="fil1" points="1315.65,1190.26 2451.53,2326.14 2450.29,2325.16 2449.08,2324.14 2447.91,2323.1 2446.77,2322.02 2445.68,2320.93 1309.79,1185.04 1310.89,1186.14 1312.03,1187.21 1313.2,1188.26 1314.41,1189.27 "/>
     <polygon id="_303087832" class="fil1" points="917.088,1130.41 2052.97,2266.29 2049.36,2263.47 2045.82,2260.6 2042.35,2257.67 2038.94,2254.69 2035.6,2251.66 2032.33,2248.59 896.444,1112.71 899.72,1115.78 903.061,1118.81 906.468,1121.79 909.942,1124.71 913.482,1127.59 "/>
     <polygon id="_303088168" class="fil1" points="1317.87,944.565 2453.75,2080.45 2453.56,2084.06 2453.31,2087.67 2453.02,2091.28 2452.66,2094.88 2452.26,2098.49 2451.81,2102.09 2451.3,2105.68 2450.73,2109.27 2450.12,2112.85 2449.45,2116.43 2448.73,2120 2447.96,2123.57 2447.13,2127.13 2446.25,2130.67 2445.31,2134.21 2444.33,2137.74 2443.28,2141.26 2442.19,2144.77 2441.04,2148.27 2439.84,2151.75 2438.58,2155.23 2437.27,2158.68 2435.9,2162.13 2434.49,2165.56 2433.01,2168.97 2431.48,2172.37 2429.9,2175.76 2428.27,2179.12 2426.57,2182.47 2424.83,2185.8 2423.03,2189.12 2421.17,2192.41 1285.29,1056.53 1287.15,1053.23 1288.95,1049.92 1290.69,1046.59 1292.38,1043.24 1294.02,1039.88 1295.6,1036.49 1297.13,1033.09 1298.6,1029.68 1300.02,1026.25 1301.39,1022.8 1302.7,1019.34 1303.96,1015.87 1305.16,1012.39 1306.31,1008.89 1307.4,1005.38 1308.44,1001.86 1309.43,998.331 1310.37,994.792 1311.25,991.243 1312.07,987.687 1312.85,984.122 1313.57,980.551 1314.24,976.972 1314.85,973.387 1315.41,969.798 1315.92,966.203 1316.38,962.604 1316.78,959 1317.13,955.394 1317.43,951.786 1317.68,948.177 "/>
     <polygon id="_303087808" class="fil1" points="1569.06,1249.8 2704.94,2385.69 2706.76,2387.68 2708.46,2389.74 2710.05,2391.88 2711.52,2394.07 2712.87,2396.33 2714.11,2398.64 2715.23,2401 2716.23,2403.4 2717.11,2405.85 2717.87,2408.33 2718.51,2410.84 2719.03,2413.37 2719.42,2415.93 2719.7,2418.5 2719.85,2421.08 2719.88,2423.67 2719.78,2426.27 2719.56,2428.86 2719.21,2431.44 2718.74,2434.01 2718.14,2436.56 2717.41,2439.09 2716.56,2441.59 2715.57,2444.06 2714.46,2446.49 2713.22,2448.89 2711.85,2451.24 2710.34,2453.53 2708.71,2455.77 1572.83,1319.89 1574.46,1317.65 1575.97,1315.35 1577.34,1313.01 1578.58,1310.61 1579.69,1308.18 1580.68,1305.71 1581.53,1303.2 1582.26,1300.67 1582.86,1298.12 1583.33,1295.55 1583.68,1292.97 1583.9,1290.38 1584,1287.79 1583.97,1285.2 1583.82,1282.62 1583.54,1280.05 1583.15,1277.49 1582.63,1274.95 1581.99,1272.45 1581.23,1269.96 1580.35,1267.52 1579.35,1265.12 1578.23,1262.76 1576.99,1260.45 1575.64,1258.19 1574.17,1255.99 1572.58,1253.86 1570.88,1251.8 "/>
     <polygon id="_303088216" class="fil1" points="1198.23,613.87 2334.11,1749.75 2350.05,1772.01 1214.17,636.128 "/>
     <polygon id="_303087904" class="fil1" points="1214.17,636.128 2350.05,1772.01 2434.53,1889.94 1298.64,754.056 "/>
     <polygon id="_303088384" class="fil1" points="1463.37,653.202 2599.25,1789.08 2448.17,1942.04 1312.29,806.162 "/>
     <polygon id="_303087952" class="fil1" points="1312.29,806.162 2448.17,1942.04 2429.55,1960.9 1293.67,825.02 "/>
     <polygon id="_303088456" class="fil1" points="1293.67,825.02 2429.55,1960.9 2430.35,1962.59 2431.13,1964.27 2431.9,1965.97 2432.66,1967.67 2433.41,1969.37 2434.14,1971.08 2434.86,1972.79 2435.57,1974.51 2436.26,1976.23 2436.94,1977.96 2437.61,1979.69 2438.26,1981.43 2438.91,1983.17 2439.53,1984.91 2440.15,1986.66 2440.75,1988.41 1304.87,852.529 1304.27,850.776 1303.65,849.028 1303.02,847.285 1302.38,845.545 1301.73,843.809 1301.06,842.077 1300.38,840.35 1299.69,838.628 1298.98,836.91 1298.26,835.197 1297.53,833.488 1296.78,831.785 1296.02,830.085 1295.25,828.392 1294.47,826.704 "/>
     <polygon id="_303088144" class="fil1" points="1304.87,852.529 2440.75,1988.41 2441.39,1990.34 2442.02,1992.27 2442.64,1994.2 2443.23,1996.14 2443.81,1998.08 2444.38,2000.03 2444.93,2001.98 2445.46,2003.94 2445.98,2005.9 2446.48,2007.86 2446.96,2009.83 2447.43,2011.79 2447.88,2013.77 2448.32,2015.75 2448.74,2017.72 2449.15,2019.71 2449.54,2021.69 2449.91,2023.68 2450.27,2025.68 2450.61,2027.67 2450.93,2029.67 2451.24,2031.67 2451.53,2033.67 2451.81,2035.67 2452.07,2037.68 2452.31,2039.69 2452.54,2041.7 2452.75,2043.71 2452.95,2045.72 2453.12,2047.74 2453.29,2049.76 2453.43,2051.77 1317.55,915.892 1317.41,913.874 1317.24,911.857 1317.06,909.842 1316.87,907.828 1316.66,905.815 1316.43,903.805 1316.19,901.797 1315.93,899.79 1315.65,897.786 1315.36,895.784 1315.05,893.785 1314.73,891.787 1314.38,889.794 1314.03,887.801 1313.66,885.812 1313.27,883.825 1312.86,881.842 1312.44,879.863 1312,877.886 1311.55,875.912 1311.08,873.943 1310.6,871.977 1310.1,870.014 1309.58,868.054 1309.05,866.098 1308.5,864.147 1307.93,862.201 1307.35,860.257 1306.75,858.318 1306.14,856.384 1305.51,854.454 "/>
     <polygon id="_303088960" class="fil1" points="1332.08,930.179 2467.96,2066.06 2453.75,2080.45 1317.87,944.565 "/>
     <polygon id="_303089104" class="fil1" points="1572.83,1319.89 2708.71,2455.77 2706.97,2457.93 2705.14,2459.97 2703.23,2461.9 2701.24,2463.71 2699.18,2465.41 2697.05,2467 2694.86,2468.47 2692.6,2469.82 2690.3,2471.05 2687.94,2472.17 2685.54,2473.17 2683.09,2474.05 2680.62,2474.81 2678.11,2475.45 2675.58,2475.97 2673.02,2476.36 2670.45,2476.64 2667.87,2476.79 2665.28,2476.82 2662.69,2476.72 2660.1,2476.5 2657.52,2476.15 2654.95,2475.68 2652.4,2475.08 2649.87,2474.35 2647.37,2473.5 2644.9,2472.51 2642.46,2471.4 2640.07,2470.16 2637.72,2468.78 2635.42,2467.28 2633.18,2465.64 1497.3,1329.76 1499.54,1331.4 1501.84,1332.9 1504.19,1334.27 1506.58,1335.52 1509.02,1336.63 1511.49,1337.61 1513.99,1338.47 1516.52,1339.2 1519.07,1339.8 1521.64,1340.27 1524.22,1340.62 1526.81,1340.84 1529.4,1340.93 1531.99,1340.91 1534.57,1340.76 1537.14,1340.48 1539.69,1340.08 1542.23,1339.57 1544.74,1338.93 1547.21,1338.17 1549.65,1337.29 1552.06,1336.29 1554.41,1335.17 1556.72,1333.94 1558.97,1332.59 1561.17,1331.12 1563.3,1329.53 1565.36,1327.83 1567.35,1326.02 1569.26,1324.09 1571.09,1322.05 "/>
     <polygon id="_303089056" class="fil1" points="1497.3,1329.76 2633.18,2465.64 2451.53,2326.14 1315.65,1190.26 "/>
     <polygon id="_303089008" class="fil1" points="1105.35,1225.31 2241.23,2361.19 2257.17,2383.45 1121.29,1247.56 "/>
     <polygon id="_303088648" class="fil1" points="680.714,1256.35 1816.59,2392.23 1833.02,2408.66 697.137,1272.77 "/>
     <polygon id="_303088624" class="fil1" points="494.487,1527.04 1630.37,2662.92 1599.88,2662.92 464,1527.04 "/>
     <polygon id="_303089224" class="fil1" points="697.137,1272.77 1833.02,2408.66 1910.31,2485.94 774.425,1350.06 "/>
     <polygon id="_303089296" class="fil1" points="888.374,1236.11 2024.26,2372 2040.54,2391.55 904.664,1255.67 "/>
     <polygon id="_303088576" class="fil1" points="904.664,1255.67 2040.54,2391.55 2117.97,2484.45 982.084,1348.57 "/>
     <polygon id="_303088696" class="fil1" points="1121.29,1247.56 2257.17,2383.45 2326.3,2479.96 1190.42,1344.07 "/>
     <polygon id="_303089680" class="fil1" points="1332.08,1266.58 2467.96,2402.46 2339.95,2532.06 1204.07,1396.18 "/>
     <polygon id="_303089344" class="fil1" points="1099.49,1296.86 2235.37,2432.74 2132.9,2535.21 997.014,1399.33 "/>
     <polygon id="_303089584" class="fil1" points="1470.08,1466.07 2605.97,2601.95 2605.97,2662.92 1470.08,1527.04 "/>
     <polygon id="_303089872" class="fil1" points="1204.07,1396.18 2339.95,2532.06 2320.57,2551.69 1184.69,1415.8 "/>
     <polygon id="_303090088" class="fil1" points="885.387,1304.8 2021.27,2440.68 1926.73,2535.21 790.848,1399.33 "/>
     <polygon id="_303089704" class="fil1" points="997.014,1399.33 2132.9,2535.21 2114.98,2553.13 979.098,1417.25 "/>
     <polygon id="_303089608" class="fil1" points="790.848,1399.33 1926.73,2535.21 1910.31,2551.64 774.425,1415.76 "/>
     <polygon id="_303089920" class="fil1" points="680.714,1322.04 1816.59,2457.93 1739.31,2535.21 603.426,1399.33 "/>
     <polygon id="_303089488" class="fil1" points="1470.08,1527.04 2605.97,2662.92 1630.37,2662.92 494.487,1527.04 "/>
    </g>
    <path id="_308720080" class="fil1" d="M1381.3 1104.8l181.625 139.523c23.6386,18.1063 28.0512,51.9768 9.90709,75.5729 -18.0744,23.5855 -51.9178,28.0311 -75.528,9.86812l-181.649 -139.5c-13.4764,-10.363 -20.7024,-25.8555 -21.039,-41.6339l-0.641339 -0.49252c-0.21378,-0.16063 -0.425197,-0.322441 -0.635434,-0.487796l-49.0748 -37.6985c-87.182,86.4969 -227.074,97.3501 -327.173,20.4638 -38.8099,-29.8134 -66.4075,-68.8241 -82.0973,-111.617l-44.1426 44.1426 -16.4232 16.4221 -16.4232 -16.4221 -77.2879 -77.2879 -77.2879 77.2879 -32.8465 -32.8477 93.7111 -93.7111 16.4232 -16.4232 16.4232 16.4232 77.2879 77.2879 47.5229 -47.5229c-8.5878,-63.515 7.1752,-130.3 49.3075,-185.127 22.8284,-29.7189 51.0343,-52.8685 82.1989,-69.1359l-14.0268 -16.8319 -114.803 114.802 -16.4232 16.4232 -16.4244 -16.4232 -94.1765 -94.1741 -94.1741 94.1741 -32.8465 -32.8465 110.597 -110.599 16.4232 -16.4232 16.4244 16.4232 94.1765 94.1741 116.295 -116.295 17.9185 -17.9162 16.2898 19.5496 39.8256 47.791c40.1422,-11.7886 82.9394,-13.415 124.189,-4.32992l56.1544 -56.1544 19.3536 -19.3536 15.9425 22.2579 84.4749 117.928 131.699 -133.338 33.0296 32.4839 -151.081 152.96 -18.6248 18.8575c4.29095,8.96575 8.02678,18.1536 11.2028,27.5091 6.95552,20.5122 11.2087,41.8264 12.6827,63.3638l14.5276 14.2866 -14.2087 14.3858c-1.78228,38.5264 -12.4973,76.9418 -32.5796,111.963l48.913 37.5662c0.387402,0.284646 0.770079,0.577559 1.14567,0.879922l0.294095 0.225591c15.3366,-3.74646 32.1697,-0.757087 45.6508,9.59646zm-856.321 -583.838l0 945.111 945.111 0 0 60.9745 -975.598 0 -30.4866 0 0 -30.4866 0 -975.598 60.9745 0zm155.739 735.393l16.4232 16.4244 77.2879 77.2879 96.032 -96.0296 17.9173 -17.9185 16.2898 19.5508 77.4201 92.9044 103.91 -103.909 19.3536 -19.3547 15.9425 22.2579 69.1323 96.5103 108.63 -109.982 33.0284 32.4839 -128.012 129.605 -19.3819 19.6228 -16.0051 -22.3453 -69.1949 -96.5989 -102.473 102.473 -17.9162 17.9162 -16.291 -19.5484 -77.4201 -92.9044 -94.539 94.5367 -16.4232 16.4232 -16.4232 -16.4232 -77.2879 -77.2879 -77.2879 77.2879 -32.8465 -32.8465 93.7111 -93.7111 16.4232 -16.4244z"/>
   </g>
  </g>
  <path class="fil2" d="M1024 0c565.541,0 1024,458.459 1024,1024 0,565.541 -458.459,1024 -1024,1024 -565.541,0 -1024,-458.459 -1024,-1024 0,-565.541 458.459,-1024 1024,-1024z"/>
  <polygon class="fil3" points="524.974,520.957 524.974,1466.07 1470.09,1466.07 1470.09,1527.04 494.487,1527.04 464,1527.04 464,1496.56 464,520.957 "/>
  <polygon class="fil4" points="570.579,1366.49 664.29,1272.77 680.714,1256.35 697.137,1272.77 774.425,1350.06 870.457,1254.03 888.374,1236.12 904.664,1255.67 982.084,1348.57 1085.99,1244.66 1105.35,1225.31 1121.29,1247.56 1190.42,1344.07 1299.05,1234.09 1332.08,1266.58 1204.07,1396.18 1184.69,1415.8 1168.68,1393.46 1099.49,1296.86 997.015,1399.33 979.099,1417.25 962.807,1397.7 885.387,1304.8 790.848,1399.33 774.425,1415.76 758.001,1399.33 680.714,1322.05 603.426,1399.33 "/>
  <polygon class="fil5" points="570.579,777.003 681.178,666.404 697.601,649.981 714.024,666.404 808.199,760.58 924.497,644.284 942.413,626.367 958.704,645.917 1053.01,759.087 1178.87,633.224 1198.23,613.871 1214.17,636.128 1298.64,754.056 1430.34,620.718 1463.37,653.202 1312.29,806.163 1292.91,825.786 1276.9,803.441 1192.37,685.424 1067.94,809.849 1050.02,827.767 1033.73,808.216 939.427,695.046 824.624,809.849 808.201,826.273 791.776,809.849 697.601,715.674 603.426,809.849 "/>
  <polygon class="fil4" points="570.579,1030.09 664.29,936.377 680.714,919.954 697.137,936.377 774.425,1013.67 870.457,917.635 888.374,899.718 904.664,919.268 982.084,1012.17 1085.99,908.264 1105.35,888.909 1121.29,911.167 1190.42,1007.68 1299.05,897.695 1332.08,930.179 1204.07,1059.78 1184.69,1079.41 1168.68,1057.06 1099.49,960.464 997.015,1062.94 979.099,1080.85 962.807,1061.3 885.387,968.398 790.848,1062.94 774.425,1079.36 758.001,1062.94 680.714,985.648 603.426,1062.94 "/>
  <polygon class="fil6" points="1458.04,1189.2 1416.98,1242.63 1224.68,1094.91 1265.69,1041.47 "/>
  <path class="fil7" d="M1562.92 1244.32c23.6386,18.1063 28.0512,51.9768 9.90828,75.5729 -18.0756,23.5843 -51.9189,28.0311 -75.5292,9.86694l-181.649 -139.498c-23.5748,-18.1299 -28.0205,-51.9544 -9.92481,-75.5481 18.1347,-23.6032 51.9839,-28.0311 75.5693,-9.91654l181.625 139.523z"/>
  <path class="fil8" d="M832.966 1013.06c15.2788,45.0378 43.5839,86.2135 84.1217,117.354 109.16,83.8453 265.64,63.3497 349.481,-45.8008 52.6867,-68.5973 64.141,-155.877 38.3008,-232.081l-44.0126 14.9717c21.0166,62.002 11.6988,133.015 -31.1563,188.827 -68.1745,88.7516 -195.486,105.444 -284.308,37.2118 -32.961,-25.3335 -55.9914,-58.813 -68.4142,-95.4544l-44.0126 14.9717zm38.289 -232.041c-52.6949,68.5713 -64.141,155.851 -38.289,232.041l44.0103 -14.9705c-21.0343,-61.9867 -11.7319,-133.008 31.1292,-188.789 68.1934,-88.7764 195.525,-105.506 284.332,-37.3099 32.9835,25.3453 56.0091,58.8556 68.4201,95.5135l44.0126 -14.9717c-15.2953,-45.0567 -43.6016,-86.2371 -84.1666,-117.411 -109.127,-83.8194 -265.576,-63.2871 -349.448,45.8977z"/>
  <path class="fil6" d="M1346.13 1110.35c-5.97993,-17.5772 -25.1858,-27.039 -42.763,-21.0591 -17.5807,5.97756 -27.0319,25.1918 -21.0532,42.7701 5.97874,17.5772 25.187,27.0402 42.7666,21.0603 17.5772,-5.97874 27.0295,-25.1918 21.0496,-42.7713z"/>
 </g>
</svg>
