<?xml version="1.0" encoding="UTF-8"?>
<!-- Creator: CorelDRAW -->
<svg xmlns="http://www.w3.org/2000/svg" xml:space="preserve" width="2048px" height="2048px" style="shape-rendering:geometricPrecision; text-rendering:geometricPrecision; image-rendering:optimizeQuality; fill-rule:evenodd; clip-rule:evenodd"
viewBox="0 0 2048 2048">
 <defs>
  <style type="text/css">
   <![CDATA[
    .fil2 {fill:none}
    .fil1 {fill:#E6CA75}
    .fil0 {fill:#FFE082}
    .fil4 {fill:#29B6F6;fill-rule:nonzero}
    .fil5 {fill:#81D4FA;fill-rule:nonzero}
    .fil3 {fill:#E53935;fill-rule:nonzero}
   ]]>
  </style>
   <clipPath id="id0">
    <path d="M1024 0c565.541,0 1024,458.459 1024,1024 0,565.541 -458.459,1024 -1024,1024 -565.541,0 -1024,-458.459 -1024,-1024 0,-565.541 458.459,-1024 1024,-1024z"/>
   </clipPath>
 </defs>
 <g id="Layer_x0020_1">
  <metadata id="CorelCorpID_0Corel-Layer"/>
  <path class="fil0" d="M1024 0c565.541,0 1024,458.459 1024,1024 0,565.541 -458.459,1024 -1024,1024 -565.541,0 -1024,-458.459 -1024,-1024 0,-565.541 458.459,-1024 1024,-1024z"/>
  <g style="clip-path:url(#id0)">
   <g id="_308723704">
    <g>
     <polygon id="_3021455281" class="fil1" points="1314.42,757.835 2450.31,1893.72 2243.28,1893.72 1107.4,757.835 "/>
     <polygon id="_302146608" class="fil1" points="1157.93,982.252 2293.81,2118.13 2296.35,2120.76 2298.84,2123.42 2301.29,2126.12 2303.7,2128.86 2306.06,2131.63 2308.39,2134.44 2310.67,2137.28 2312.91,2140.16 2315.1,2143.08 2317.25,2146.03 2319.36,2149.01 2321.42,2152.03 2323.43,2155.07 2325.4,2158.15 2327.32,2161.26 2329.2,2164.41 2331.03,2167.58 2332.81,2170.78 2334.54,2174.01 2336.22,2177.28 2337.85,2180.56 2339.44,2183.88 2340.97,2187.23 2342.45,2190.6 2343.88,2194 1208,1058.11 1206.57,1054.72 1205.09,1051.34 1203.55,1048 1201.97,1044.68 1200.34,1041.39 1198.66,1038.13 1196.93,1034.9 1195.15,1031.7 1193.32,1028.52 1191.44,1025.38 1189.52,1022.27 1187.55,1019.19 1185.54,1016.14 1183.48,1013.13 1181.37,1010.15 1179.22,1007.2 1177.03,1004.28 1174.79,1001.4 1172.51,998.557 1170.18,995.747 1167.82,992.974 1165.41,990.237 1162.96,987.537 1160.47,984.875 "/>
     <polygon id="_302146416" class="fil1" points="1498.96,1488.05 2634.85,2623.93 2630.12,2628.11 2625.28,2632.18 2620.36,2636.13 2615.33,2639.98 2610.21,2643.71 2605,2647.32 2599.69,2650.82 2594.31,2654.19 2588.83,2657.45 2583.27,2660.58 2577.63,2663.6 2571.91,2666.48 2566.12,2669.24 2560.25,2671.87 2554.31,2674.38 2548.3,2676.75 2542.22,2678.99 2536.08,2681.09 2529.88,2683.06 2523.61,2684.89 2517.28,2686.59 2510.9,2688.14 2504.47,2689.55 2497.98,2690.82 2491.44,2691.94 2484.85,2692.92 2478.23,2693.75 2471.55,2694.43 2464.84,2694.96 2458.08,2695.33 2451.3,2695.55 2444.47,2695.62 1308.59,1559.74 1315.41,1559.67 1322.2,1559.45 1328.96,1559.07 1335.67,1558.54 1342.34,1557.86 1348.97,1557.04 1355.56,1556.06 1362.1,1554.94 1368.58,1553.67 1375.02,1552.26 1381.4,1550.7 1387.73,1549.01 1393.99,1547.18 1400.2,1545.21 1406.34,1543.1 1412.42,1540.87 1418.43,1538.49 1424.37,1535.99 1430.24,1533.36 1436.03,1530.6 1441.75,1527.71 1447.39,1524.7 1452.95,1521.57 1458.42,1518.31 1463.81,1514.93 1469.12,1511.44 1474.33,1507.82 1479.45,1504.09 1484.47,1500.25 1489.4,1496.29 1494.23,1492.23 "/>
     <polygon id="_302146488" class="fil1" points="1308.59,1559.74 2444.47,2695.62 2382.01,2695.51 1246.13,1559.63 "/>
     <polygon id="_302146920" class="fil1" points="1246.13,1559.63 2382.01,2695.51 2382,2695.51 2382,2695.51 2382,2695.51 2381.99,2695.51 1246.11,1559.63 1246.12,1559.63 1246.12,1559.63 1246.12,1559.63 "/>
     <polygon id="_302146584" class="fil1" points="1246.11,1559.63 2381.99,2695.51 2380.98,2695.54 2379.98,2695.56 2378.96,2695.58 2377.95,2695.6 2376.94,2695.61 2375.93,2695.62 2374.91,2695.62 2373.9,2695.62 1238.02,1559.74 1239.03,1559.74 1240.05,1559.73 1241.06,1559.73 1242.07,1559.72 1243.08,1559.7 1244.09,1559.68 1245.1,1559.66 "/>
     <polygon id="_302146392" class="fil1" points="1238.02,1559.74 2373.9,2695.62 1807.64,2694.65 671.76,1558.77 "/>
     <polygon id="_302147592" class="fil1" points="671.76,1558.77 1807.64,2694.65 1806.28,2694.65 1804.97,2694.64 1803.69,2694.62 1802.45,2694.59 1801.26,2694.56 1800.1,2694.52 1798.99,2694.48 1797.92,2694.43 662.036,1558.55 663.109,1558.6 664.223,1558.64 665.377,1558.68 666.572,1558.71 667.808,1558.74 669.084,1558.75 670.401,1558.76 "/>
     <polygon id="_302147256" class="fil1" points="662.036,1558.55 1797.92,2694.43 1792.63,2694.1 1787.39,2693.63 1782.19,2693.02 1777.03,2692.28 1771.92,2691.42 1766.86,2690.42 1761.85,2689.3 1756.88,2688.05 1751.97,2686.68 1747.1,2685.19 1742.3,2683.58 1737.54,2681.85 1732.84,2680 1728.2,2678.05 1723.62,2675.98 1719.1,2673.8 1714.65,2671.51 1710.25,2669.12 1705.92,2666.62 1701.65,2664.02 1697.46,2661.32 1693.33,2658.52 1689.27,2655.62 1685.28,2652.62 1681.37,2649.54 1677.53,2646.36 541.645,1510.48 545.485,1513.66 549.401,1516.74 553.388,1519.74 557.448,1522.63 561.577,1525.43 565.773,1528.14 570.038,1530.74 574.369,1533.24 578.764,1535.63 583.222,1537.92 587.742,1540.1 592.323,1542.17 596.963,1544.12 601.66,1545.97 606.414,1547.7 611.222,1549.31 616.085,1550.8 620.999,1552.17 625.965,1553.42 630.98,1554.54 636.043,1555.53 641.154,1556.4 646.309,1557.14 651.508,1557.74 656.751,1558.21 "/>
     <polygon id="_302147280" class="fil1" points="1583.66,1309.65 2719.55,2445.53 2719.12,2452.25 2718.54,2458.91 2717.79,2465.5 2716.88,2472.04 2715.81,2478.51 2714.59,2484.92 2713.22,2491.26 2711.69,2497.53 2710.01,2503.73 2708.18,2509.86 2706.21,2515.92 2704.09,2521.9 2701.84,2527.81 2699.44,2533.65 2696.91,2539.4 2694.24,2545.08 2691.44,2550.68 2688.5,2556.19 2685.44,2561.62 2682.25,2566.96 2678.94,2572.22 2675.5,2577.39 2671.94,2582.47 2668.27,2587.46 2664.48,2592.36 2660.57,2597.16 2656.55,2601.87 2652.42,2606.48 2648.18,2610.99 2643.84,2615.41 2639.39,2619.72 2634.85,2623.93 1498.96,1488.05 1503.51,1483.84 1507.96,1479.53 1512.3,1475.11 1516.54,1470.6 1520.67,1465.99 1524.69,1461.28 1528.6,1456.47 1532.39,1451.58 1536.06,1446.59 1539.62,1441.51 1543.06,1436.34 1546.37,1431.08 1549.56,1425.73 1552.62,1420.31 1555.56,1414.79 1558.36,1409.2 1561.03,1403.52 1563.56,1397.76 1565.96,1391.93 1568.21,1386.02 1570.33,1380.04 1572.3,1373.98 1574.13,1367.85 1575.81,1361.64 1577.33,1355.37 1578.71,1349.03 1579.93,1342.63 1581,1336.16 1581.91,1329.62 1582.66,1323.02 1583.24,1316.37 "/>
     <polygon id="_302147400" class="fil1" points="1376.98,488.261 2512.86,1624.14 2512.86,1831.16 1376.98,695.281 "/>
     <polygon id="_302147640" class="fil1" points="1584,695.281 2719.88,1831.16 2719.88,1893.72 1584,757.835 "/>
     <polygon id="_302147328" class="fil1" points="1584,757.835 2719.88,1893.72 2512.86,1893.72 1376.98,757.835 "/>
     <polygon id="_302147496" class="fil1" points="1376.98,757.835 2512.86,1893.72 2512.86,2100.74 1376.98,964.856 "/>
     <polygon id="_302147472" class="fil1" points="1376.98,964.856 2512.86,2100.74 2450.31,2100.74 1314.42,964.856 "/>
     <polygon id="_302147544" class="fil1" points="1515.88,1119.77 2651.76,2255.65 2655.94,2260.4 2660.02,2265.24 2663.97,2270.17 2667.81,2275.2 2671.53,2280.33 2675.13,2285.54 2678.61,2290.84 2681.95,2296.23 2685.18,2301.7 2688.27,2307.25 2691.23,2312.88 2694.06,2318.59 2696.75,2324.37 2699.3,2330.22 2701.72,2336.15 2703.99,2342.14 2706.12,2348.2 2708.1,2354.32 2709.94,2360.51 2711.63,2366.75 2713.17,2373.05 2714.55,2379.41 2715.78,2385.82 2716.86,2392.28 2717.77,2398.79 2718.52,2405.34 2719.11,2411.94 2719.54,2418.59 2719.79,2425.27 2719.88,2431.99 2719.8,2438.74 2719.55,2445.53 1583.66,1309.65 1583.92,1302.86 1584,1296.1 1583.91,1289.39 1583.65,1282.7 1583.23,1276.06 1582.64,1269.46 1581.89,1262.91 1580.97,1256.4 1579.9,1249.94 1578.67,1243.53 1577.29,1237.17 1575.75,1230.87 1574.06,1224.62 1572.22,1218.44 1570.24,1212.32 1568.11,1206.26 1565.83,1200.26 1563.42,1194.34 1560.87,1188.49 1558.17,1182.7 1555.35,1177 1552.39,1171.37 1549.29,1165.82 1546.07,1160.35 1542.72,1154.96 1539.25,1149.66 1535.65,1144.44 1531.93,1139.32 1528.09,1134.29 1524.13,1129.35 1520.06,1124.51 "/>
    </g>
    <path id="_308723584" class="fil1" d="M1333.58 1033.31c72.6993,3.64843 137.045,36.4264 182.3,86.4638 45.2587,50.0457 71.4331,117.293 67.7894,189.879 -3.61181,71.9623 -35.6398,134.03 -84.7005,178.401 -49.9052,45.1335 -117.419,71.8111 -190.373,71.6871l-62.465 -0.106299c-0.00472441,0 -0.00944883,0 -0.0141732,0 -2.68937,0.0755906 -5.38819,0.111024 -8.0941,0.106299l-566.259 -0.967324c-3.67559,-0.00590552 -6.91654,-0.0814961 -9.72402,-0.220866 -56.5796,-2.84173 -106.321,-29.1933 -141.806,-68.9587 -35.1331,-39.3721 -56.3256,-92.0859 -56.2311,-148.141 0.00590552,-3.54331 0.0732284,-6.7689 0.200788,-9.66733 -0.138189,-3.39922 -0.205512,-6.81142 -0.199606,-10.2354 0.00708662,-4.32048 0.0968505,-8.20985 0.269292,-11.6492 3.28465,-65.452 32.7945,-123.382 77.8465,-164.127 45.0579,-40.7492 105.599,-64.3134 170.938,-61.0335 12.2445,0.614174 24.0343,2.08937 35.315,4.35709 6.71103,-14.0646 14.8807,-27.2717 24.3036,-39.437 14.4461,-31.5851 35.5807,-59.3445 61.5083,-81.5587 44.4827,-38.1142 103.06,-59.9221 166.143,-56.7556 52.8697,2.65394 100.83,22.4138 138.793,53.6528 30.0898,24.7606 53.8949,56.7355 68.8855,93.1182 14.2122,-6.71457 29.1236,-12.1984 44.5866,-16.3228 25.7185,-6.8563 52.9453,-9.89056 80.9871,-8.48386zm43.402 -545.046l0 207.02 207.021 0 0 62.5536 -207.021 0 0 207.021 -62.5536 0 0 -207.021 -207.02 0 0 -62.5536 207.02 0 0 -207.02 62.5536 0z"/>
   </g>
  </g>
  <path class="fil2" d="M1024 0c565.541,0 1024,458.459 1024,1024 0,565.541 -458.459,1024 -1024,1024 -565.541,0 -1024,-458.459 -1024,-1024 0,-565.541 458.459,-1024 1024,-1024z"/>
  <polygon class="fil3" points="1107.4,695.281 1314.42,695.281 1314.42,488.261 1376.98,488.261 1376.98,695.281 1584,695.281 1584,757.835 1376.98,757.835 1376.98,964.856 1314.42,964.856 1314.42,757.835 1107.4,757.835 "/>
  <path class="fil4" d="M1333.58 1033.31c72.6981,3.64843 137.043,36.4264 182.299,86.4638 45.2599,50.0445 71.4331,117.292 67.7894,189.879 -3.61181,71.9623 -35.6398,134.029 -84.7005,178.401 -49.9052,45.1335 -117.418,71.8111 -190.373,71.6871l-617.888 -1.05591c-4.01221,-0.00590552 -7.54843,-0.0885827 -10.611,-0.242126 -61.7398,-3.09803 -116.015,-31.8532 -154.736,-75.2457 -38.3351,-42.9603 -61.4599,-100.48 -61.356,-161.647 0.00708662,-4.32048 0.0968505,-8.20985 0.269292,-11.6492 3.28583,-65.452 32.7945,-123.382 77.8477,-164.127 45.0567,-40.7492 105.598,-64.3134 170.936,-61.0335 13.5709,0.679134 26.5795,2.4189 38.9575,5.12008 2.05748,0.45 4.10906,0.927166 6.15355,1.43386 12.0685,-48.9579 39.2138,-91.6607 76.0158,-123.193 44.4827,-38.113 103.06,-59.9221 166.143,-56.7556 52.8685,2.65394 100.83,22.415 138.791,53.6528 30.091,24.7606 53.8961,56.7355 68.8867,93.1182 14.2122,-6.71339 29.1236,-12.1984 44.5866,-16.3217 25.7185,-6.85749 52.9453,-9.89174 80.9883,-8.48505z"/>
  <path class="fil5" d="M1260.92 1077.3c66.6237,3.34252 125.593,33.3815 167.066,79.2379 41.478,45.8634 65.465,107.492 62.1249,174.013 -3.30945,65.9493 -32.661,122.83 -77.6221,163.494 -45.7347,41.3622 -107.608,65.8099 -174.465,65.6965l-566.259 -0.967324c-3.67677,-0.00590552 -6.91654,-0.0814961 -9.72402,-0.222047 -56.5808,-2.83937 -106.321,-29.1921 -141.806,-68.9575 -35.1331,-39.3709 -56.3256,-92.0847 -56.23,-148.141 0.00590552,-3.95906 0.0885827,-7.52363 0.246851,-10.676 3.01063,-59.9823 30.0544,-113.072 71.3422,-150.412 41.2926,-37.3441 96.7749,-58.9394 156.653,-55.9347 12.437,0.623623 24.3591,2.21693 35.7024,4.69252 1.88622,0.412205 3.76654,0.850394 5.63977,1.31457 11.0599,-44.8678 35.9374,-84.0012 69.6638,-112.898 40.7658,-34.9299 94.4481,-54.9154 152.261,-52.0134 48.4512,2.43189 92.4036,20.5406 127.194,49.1693 27.5764,22.6925 49.3926,51.9945 63.13,85.3371 13.0252,-6.15237 26.6906,-11.1791 40.8614,-14.9575 23.5701,-6.28465 48.5209,-9.06497 74.2205,-7.7752z"/>
 </g>
</svg>
