<?xml version="1.0" encoding="UTF-8"?>
<!-- Creator: CorelDRAW -->
<svg xmlns="http://www.w3.org/2000/svg" xml:space="preserve" width="2048px" height="2048px" style="shape-rendering:geometricPrecision; text-rendering:geometricPrecision; image-rendering:optimizeQuality; fill-rule:evenodd; clip-rule:evenodd"
viewBox="0 0 2048 2048">
 <defs>
  <style type="text/css">
   <![CDATA[
    .str0 {stroke:#FFB300;stroke-width:37.9996}
    .fil2 {fill:none}
    .fil1 {fill:#616161}
    .fil0 {fill:#757575}
    .fil6 {fill:#E03431}
    .fil5 {fill:#EE403D}
    .fil4 {fill:#FFAB00}
    .fil3 {fill:#FFE57F}
   ]]>
  </style>
   <clipPath id="id0">
    <path d="M1024 0c565.541,0 1024,458.459 1024,1024 0,565.541 -458.459,1024 -1024,1024 -565.541,0 -1024,-458.459 -1024,-1024 0,-565.541 458.459,-1024 1024,-1024z"/>
   </clipPath>
 </defs>
 <g id="Layer_x0020_1">
  <metadata id="CorelCorpID_0Corel-Layer"/>
  <path class="fil0" d="M1024 0c565.541,0 1024,458.459 1024,1024 0,565.541 -458.459,1024 -1024,1024 -565.541,0 -1024,-458.459 -1024,-1024 0,-565.541 458.459,-1024 1024,-1024z"/>
  <g style="clip-path:url(#id0)">
   <g id="_308712376">
    <g>
     <polygon id="_3039327441" class="fil1" points="1420.67,673.278 2556.55,1809.16 2556.55,1809.88 1420.67,673.999 "/>
     <polygon id="_303932768" class="fil1" points="1420.67,673.999 2556.55,1809.88 2556.55,2719.88 1420.67,1584 "/>
     <polygon id="_303933032" class="fil1" points="1420.67,1584 2556.55,2719.88 1763.21,2719.88 627.332,1584 "/>
    </g>
    <polygon id="_308713456" class="fil1" points="627.332,463.999 1187.28,463.999 1187.33,464.051 1187.33,463.999 1202.81,477.928 1203.01,478.108 1420.67,673.278 1420.67,673.999 1420.67,1584 627.332,1584 "/>
   </g>
  </g>
  <path class="fil2" d="M1024 0c565.541,0 1024,458.459 1024,1024 0,565.541 -458.459,1024 -1024,1024 -565.541,0 -1024,-458.459 -1024,-1024 0,-565.541 458.459,-1024 1024,-1024z"/>
  <polygon class="fil3" points="627.332,463.999 1187.28,463.999 1420.67,673.278 1420.67,1584 627.332,1584 "/>
  <polygon class="fil4" points="1187.33,463.999 1420.67,673.999 1187.33,673.999 "/>
  <polygon class="fil5" points="831.669,724.792 831.669,979.575 772.998,979.575 772.998,724.792 "/>
  <polygon class="fil6" points="905.557,773.176 905.557,979.575 846.886,979.575 846.886,773.176 "/>
  <polygon class="fil5" points="979.446,819.843 979.446,979.575 920.776,979.575 920.776,819.843 "/>
  <polygon class="fil5" points="1053.34,756.161 1053.34,979.575 994.665,979.575 994.665,756.161 "/>
  <polygon class="fil6" points="1127.22,855.625 1127.22,979.575 1068.55,979.575 1068.55,855.625 "/>
  <polygon class="fil5" points="1201.11,889.843 1201.11,979.575 1142.44,979.575 1142.44,889.843 "/>
  <polygon class="fil5" points="1275,819.843 1275,979.575 1216.33,979.575 1216.33,819.843 "/>
  <line class="fil2 str0" x1="697.333" y1="1070.67" x2="1350.67" y2= "1070.67" />
  <line class="fil2 str0" x1="697.333" y1="1140.67" x2="1350.67" y2= "1140.67" />
  <line class="fil2 str0" x1="697.333" y1="1210.67" x2="1350.67" y2= "1210.67" />
  <line class="fil2 str0" x1="697.333" y1="1280.67" x2="1350.67" y2= "1280.67" />
  <line class="fil2 str0" x1="697.333" y1="1350.67" x2="1350.67" y2= "1350.67" />
  <line class="fil2 str0" x1="697.333" y1="1420.67" x2="1350.67" y2= "1420.67" />
  <line class="fil2 str0" x1="697.333" y1="1490.67" x2="1350.67" y2= "1490.67" />
 </g>
</svg>
