<?xml version="1.0" encoding="UTF-8"?>
<!-- Creator: CorelDRAW -->
<svg xmlns="http://www.w3.org/2000/svg" xml:space="preserve" width="2048px" height="2048px" style="shape-rendering:geometricPrecision; text-rendering:geometricPrecision; image-rendering:optimizeQuality; fill-rule:evenodd; clip-rule:evenodd"
viewBox="0 0 2048 2048">
 <defs>
  <style type="text/css">
   <![CDATA[
    .fil2 {fill:none}
    .fil1 {fill:#C0CA33}
    .fil0 {fill:#DCE775}
    .fil3 {fill:#29B6F6;fill-rule:nonzero}
    .fil4 {fill:#81D4FA;fill-rule:nonzero}
    .fil5 {fill:#E53935;fill-rule:nonzero}
   ]]>
  </style>
   <clipPath id="id0">
    <path d="M1024 0c565.541,0 1024,458.459 1024,1024 0,565.541 -458.459,1024 -1024,1024 -565.541,0 -1024,-458.459 -1024,-1024 0,-565.541 458.459,-1024 1024,-1024z"/>
   </clipPath>
 </defs>
 <g id="Layer_x0020_1">
  <metadata id="CorelCorpID_0Corel-Layer"/>
  <path class="fil0" d="M1024 0c565.541,0 1024,458.459 1024,1024 0,565.541 -458.459,1024 -1024,1024 -565.541,0 -1024,-458.459 -1024,-1024 0,-565.541 458.459,-1024 1024,-1024z"/>
  <g style="clip-path:url(#id0)">
   <g id="_308722408">
    <g>
     <polygon id="_3021348721" class="fil1" points="1467.04,654.654 2602.92,1790.54 2606.55,1794.86 2610.09,1799.27 2613.52,1803.76 2616.84,1808.34 2620.05,1812.99 2623.16,1817.73 2626.15,1822.54 2629.02,1827.42 2631.79,1832.38 2634.43,1837.41 2636.95,1842.51 2639.36,1847.67 2641.64,1852.9 2643.8,1858.19 2645.83,1863.54 2647.73,1868.95 2649.5,1874.42 2651.14,1879.95 2652.65,1885.52 2654.03,1891.15 2655.26,1896.83 2656.36,1902.55 2657.32,1908.32 2658.13,1914.13 2658.81,1919.99 2659.33,1925.88 2659.71,1931.82 2659.94,1937.78 2660.02,1943.79 2659.95,1949.82 2659.72,1955.88 1523.84,820 1524.07,813.936 1524.14,807.903 1524.06,801.902 1523.83,795.934 1523.45,790.002 1522.92,784.107 1522.25,778.253 1521.44,772.439 1520.48,766.669 1519.38,760.945 1518.14,755.267 1516.77,749.639 1515.26,744.063 1513.62,738.539 1511.85,733.071 1509.95,727.66 1507.91,722.307 1505.76,717.016 1503.48,711.787 1501.07,706.623 1498.55,701.526 1495.91,696.498 1493.14,691.54 1490.27,686.654 1487.27,681.844 1484.17,677.11 1480.96,672.454 1477.64,667.878 1474.21,663.386 1470.67,658.976 "/>
     <polygon id="_302135208" class="fil1" points="1150.29,534.73 2286.17,1670.61 2288.32,1673.06 2290.44,1675.53 2292.51,1678.04 2294.55,1680.58 2296.55,1683.16 2298.51,1685.76 2300.43,1688.39 2302.31,1691.06 2304.15,1693.75 2305.95,1696.47 2307.71,1699.22 2309.43,1702 2311.1,1704.81 2312.73,1707.64 2314.32,1710.5 2315.87,1713.39 2317.37,1716.3 2318.83,1719.24 2320.24,1722.2 2321.61,1725.19 2322.94,1728.2 2324.21,1731.23 1188.33,595.352 1187.05,592.317 1185.73,589.306 1184.36,586.319 1182.95,583.356 1181.49,580.418 1179.99,577.506 1178.44,574.62 1176.85,571.759 1175.22,568.926 1173.54,566.119 1171.83,563.34 1170.07,560.589 1168.27,557.867 1166.43,555.174 1164.55,552.511 1162.63,549.877 1160.67,547.274 1158.67,544.702 1156.63,542.161 1154.56,539.652 1152.44,537.175 "/>
     <polygon id="_302135928" class="fil1" points="1448.19,979.331 2584.07,2115.21 2579.85,2118.94 2575.54,2122.58 2571.13,2126.11 2566.64,2129.54 2562.07,2132.87 2557.42,2136.1 2552.68,2139.22 2547.87,2142.24 2542.98,2145.15 2538.01,2147.95 2532.98,2150.64 2527.87,2153.21 2522.7,2155.68 2517.46,2158.03 2512.15,2160.27 2506.78,2162.38 2501.35,2164.38 2495.87,2166.26 2490.33,2168.02 2484.73,2169.66 2479.08,2171.17 2473.38,2172.56 2467.63,2173.82 2461.84,2174.95 2456,2175.95 2450.12,2176.82 2444.2,2177.56 2438.24,2178.17 2432.24,2178.64 2426.21,2178.98 2420.14,2179.18 2414.05,2179.24 1278.17,1043.35 1284.26,1043.3 1290.33,1043.1 1296.36,1042.76 1302.35,1042.29 1308.31,1041.68 1314.24,1040.94 1320.12,1040.07 1325.96,1039.07 1331.75,1037.93 1337.5,1036.67 1343.2,1035.29 1348.85,1033.77 1354.44,1032.14 1359.99,1030.38 1365.47,1028.5 1370.9,1026.5 1376.27,1024.38 1381.57,1022.15 1386.81,1019.8 1391.99,1017.33 1397.1,1014.75 1402.13,1012.06 1407.1,1009.26 1411.99,1006.36 1416.8,1003.34 1421.53,1000.22 1426.19,996.991 1430.76,993.66 1435.25,990.228 1439.65,986.694 1443.97,983.062 "/>
     <polygon id="_302135976" class="fil1" points="1278.17,1043.35 2414.05,2179.24 2358.27,2179.14 1222.39,1043.26 "/>
     <polygon id="_302135616" class="fil1" points="1222.39,1043.26 2358.27,2179.14 2357.37,2179.17 2356.47,2179.19 2355.56,2179.2 2354.65,2179.22 2353.75,2179.23 2352.84,2179.23 2351.93,2179.24 2351.02,2179.24 1215.14,1043.35 1216.05,1043.35 1216.96,1043.35 1217.87,1043.34 1218.77,1043.33 1219.68,1043.32 1220.58,1043.3 1221.49,1043.28 "/>
     <polygon id="_302135424" class="fil1" points="1215.14,1043.35 2351.02,2179.24 1845.29,2178.37 709.413,1042.49 "/>
     <polygon id="_302136288" class="fil1" points="709.413,1042.49 1845.29,2178.37 1844.08,2178.37 1842.9,2178.36 1841.76,2178.34 1840.66,2178.32 1839.59,2178.29 1838.56,2178.26 1837.57,2178.22 1836.61,2178.18 700.727,1042.29 701.685,1042.34 702.681,1042.38 703.712,1042.41 704.778,1042.44 705.883,1042.46 707.023,1042.47 708.2,1042.49 "/>
     <polygon id="_302136672" class="fil1" points="700.727,1042.29 1836.61,2178.18 1831.89,2177.88 1827.21,2177.46 1822.56,2176.92 1817.96,2176.26 1813.39,2175.48 1808.87,2174.59 1804.39,2173.59 1799.96,2172.48 1795.57,2171.25 1791.23,2169.92 1786.93,2168.48 1782.69,2166.94 1778.49,2165.29 1774.35,2163.54 1770.26,2161.7 1766.22,2159.75 1762.24,2157.71 1758.31,2155.57 1754.45,2153.34 1750.64,2151.01 1746.89,2148.6 1743.2,2146.1 1739.57,2143.51 1736.01,2140.84 1732.52,2138.08 1729.09,2135.24 1725.72,2132.32 1722.43,2129.33 586.549,993.446 589.843,996.442 593.206,999.361 596.637,1002.2 600.133,1004.96 603.694,1007.63 607.32,1010.22 611.007,1012.72 614.756,1015.13 618.564,1017.45 622.432,1019.69 626.357,1021.82 630.338,1023.87 634.375,1025.81 638.467,1027.66 642.61,1029.41 646.805,1031.06 651.05,1032.6 655.346,1034.04 659.688,1035.37 664.078,1036.59 668.512,1037.71 672.991,1038.71 677.513,1039.6 682.077,1040.37 686.682,1041.03 691.326,1041.57 696.008,1041.99 "/>
     <polygon id="_302136384" class="fil1" points="1523.84,820 2659.72,1955.88 2659.34,1961.88 2658.82,1967.83 2658.15,1973.72 2657.34,1979.56 2656.39,1985.34 2655.29,1991.06 2654.07,1996.72 2652.7,2002.32 2651.2,2007.86 2649.57,2013.33 2647.81,2018.75 2645.92,2024.09 2643.9,2029.37 2641.76,2034.58 2639.5,2039.72 2637.12,2044.79 2634.62,2049.79 2632,2054.71 2629.26,2059.56 2626.41,2064.33 2623.45,2069.03 2620.38,2073.64 2617.21,2078.18 2613.92,2082.64 2610.54,2087.01 2607.05,2091.3 2603.46,2095.51 2599.77,2099.62 2595.99,2103.66 2592.11,2107.6 2588.14,2111.45 2584.07,2115.21 1448.19,979.331 1452.26,975.569 1456.23,971.717 1460.11,967.775 1463.89,963.742 1467.58,959.624 1471.17,955.419 1474.66,951.128 1478.04,946.755 1481.33,942.298 1484.5,937.762 1487.57,933.145 1490.53,928.449 1493.38,923.676 1496.11,918.826 1498.73,913.903 1501.24,908.906 1503.62,903.837 1505.88,898.696 1508.02,893.486 1510.04,888.207 1511.93,882.863 1513.69,877.451 1515.32,871.975 1516.82,866.436 1518.18,860.835 1519.41,855.173 1520.51,849.453 1521.46,843.673 1522.27,837.837 1522.94,831.946 1523.46,825.999 "/>
     <polygon id="_302136432" class="fil1" points="984.626,1210.13 2120.51,2346.01 2086.19,2346.01 950.312,1210.13 "/>
     <polygon id="_302136192" class="fil1" points="809.362,1304.56 1945.24,2440.45 1919.6,2440.45 783.715,1304.56 "/>
     <polygon id="_302136816" class="fil1" points="783.715,1304.56 1919.6,2440.45 1903.47,2440.45 767.59,1304.56 "/>
     <polygon id="_302136624" class="fil1" points="862.316,1304.56 1998.2,2440.45 1998.2,2710.3 862.316,1574.42 "/>
     <polygon id="_302136696" class="fil1" points="994.437,1584 2130.32,2719.88 2120.51,2719.88 984.626,1584 "/>
     <polygon id="_302136264" class="fil1" points="950.312,1210.13 2086.19,2346.01 2064.62,2346.01 928.736,1210.13 "/>
     <polygon id="_302136936" class="fil1" points="836.254,1202 1972.14,2337.88 1977.63,2346.1 841.753,1210.22 "/>
     <polygon id="_302137368" class="fil1" points="1020.61,1072.91 2156.49,2208.79 2163.85,2219.78 1027.96,1083.9 "/>
     <polygon id="_302137680" class="fil1" points="1027.96,1083.9 2163.85,2219.78 2234.14,2324.77 1098.26,1188.89 "/>
     <polygon id="_302137464" class="fil1" points="1098.26,1188.89 2234.14,2324.77 2248.36,2346.01 1112.48,1210.13 "/>
     <polygon id="_302137272" class="fil1" points="1112.48,1210.13 2248.36,2346.01 2226.78,2346.01 1090.9,1210.13 "/>
     <polygon id="_302137128" class="fil1" points="1090.9,1210.13 2226.78,2346.01 2191.36,2346.01 1055.48,1210.13 "/>
     <polygon id="_302137416" class="fil1" points="841.753,1210.22 1977.63,2346.1 2030.17,2424.57 894.292,1288.69 "/>
     <polygon id="_302137056" class="fil1" points="894.292,1288.69 2030.17,2424.57 2040.8,2440.45 904.919,1304.56 "/>
     <polygon id="_302137200" class="fil1" points="904.919,1304.56 2040.8,2440.45 2024.67,2440.45 888.793,1304.56 "/>
     <polygon id="_302137344" class="fil1" points="888.793,1304.56 2024.67,2440.45 1998.2,2440.45 862.316,1304.56 "/>
     <polygon id="_302138088" class="fil1" points="1055.48,1210.13 2191.36,2346.01 2191.36,2707.06 1055.48,1571.18 "/>
     <polygon id="_302138328" class="fil1" points="1149.02,1304.56 2284.9,2440.45 2268.78,2440.45 1132.9,1304.56 "/>
     <polygon id="_302138352" class="fil1" points="1174.67,1304.56 2310.55,2440.45 2284.9,2440.45 1149.02,1304.56 "/>
     <polygon id="_302138424" class="fil1" points="1201.56,1202 2337.44,2337.88 2342.94,2346.1 1207.06,1210.22 "/>
     <polygon id="_302137800" class="fil1" points="1207.06,1210.22 2342.94,2346.1 2395.48,2424.57 1259.6,1288.69 "/>
     <polygon id="_302137848" class="fil1" points="1259.6,1288.69 2395.48,2424.57 2406.11,2440.45 1270.23,1304.56 "/>
     <polygon id="_302138040" class="fil1" points="1270.23,1304.56 2406.11,2440.45 2389.98,2440.45 1254.1,1304.56 "/>
     <polygon id="_302138208" class="fil1" points="1254.1,1304.56 2389.98,2440.45 2363.5,2440.45 1227.62,1304.56 "/>
     <polygon id="_302139096" class="fil1" points="1055.48,1571.18 2191.36,2707.06 2191.36,2719.88 1055.48,1584 "/>
     <polygon id="_302138616" class="fil1" points="862.316,1574.42 1998.2,2710.3 1998.2,2719.88 862.316,1584 "/>
     <polygon id="_302139216" class="fil1" points="862.316,1584 1998.2,2719.88 1990.86,2719.88 854.983,1584 "/>
     <polygon id="_302139168" class="fil1" points="854.983,1584 1990.86,2719.88 1952.58,2719.88 816.695,1584 "/>
     <polygon id="_302139048" class="fil1" points="816.695,1584 1952.58,2719.88 1945.24,2719.88 809.362,1584 "/>
     <polygon id="_302138664" class="fil1" points="1055.48,1584 2191.36,2719.88 2181.55,2719.88 1045.66,1584 "/>
     <polygon id="_302138928" class="fil1" points="1045.66,1584 2181.55,2719.88 2130.32,2719.88 994.437,1584 "/>
     <polygon id="_302138952" class="fil1" points="1227.62,1304.56 2363.5,2440.45 2363.5,2710.3 1227.62,1574.42 "/>
     <polygon id="_302138736" class="fil1" points="1227.62,1574.42 2363.5,2710.3 2363.5,2719.88 1227.62,1584 "/>
     <polygon id="_302139456" class="fil1" points="1227.62,1584 2363.5,2719.88 2356.17,2719.88 1220.29,1584 "/>
     <polygon id="_302139336" class="fil1" points="1220.29,1584 2356.17,2719.88 2317.88,2719.88 1182,1584 "/>
     <polygon id="_302139960" class="fil1" points="1182,1584 2317.88,2719.88 2310.55,2719.88 1174.67,1584 "/>
    </g>
    <path id="_308722240" class="fil1" d="M1463.3 650.418c40.4209,44.6953 63.7973,104.754 60.5422,169.582 -3.22559,64.2697 -31.8296,119.702 -75.6461,159.331 -44.5689,40.3099 -104.867,64.1351 -170.022,64.0241l-55.7776 -0.0956694c-2.40945,0.0673229 -4.82599,0.0992127 -7.25079,0.0956694l-505.728 -0.864568c-3.28465,-0.00472441 -6.17835,-0.0720473 -8.68583,-0.197244 -50.5323,-2.53583 -94.9548,-26.0717 -126.647,-61.5863 -31.3772,-35.1626 -50.3044,-82.2426 -50.2193,-132.306 0.00472441,-3.16063 0.0649607,-6.04134 0.178347,-8.62796 -0.124016,-3.0378 -0.183071,-6.08741 -0.178347,-9.14646 0.00708662,-3.85866 0.0874016,-7.33229 0.240945,-10.4043 2.93386,-58.4563 29.289,-110.195 69.5256,-146.583 40.2414,-36.3933 94.3111,-57.4382 152.665,-54.5103 10.937,0.549213 21.4654,1.86614 31.5402,3.89174 5.9941,-12.561 13.2898,-24.3567 21.7051,-35.2217 12.9024,-28.2083 31.7776,-52.9996 54.9343,-72.8398 39.7264,-34.0394 92.0434,-53.517 148.382,-50.6894 47.2193,2.36929 90.052,20.0197 123.957,47.9185 26.8736,22.1138 48.1347,50.6705 61.5225,83.1638 12.6933,-5.99528 26.0103,-10.8933 39.8197,-14.5772 22.9701,-6.12402 47.2867,-8.83465 72.3319,-7.57678 64.9264,3.25748 122.394,32.5323 162.812,77.2205zm-407.821 559.709l0 361.05 0 12.8232 -9.81024 0 -51.228 0 -9.81142 0 0 -12.8232 0 -361.05 -34.3134 0 -21.5764 0 14.2181 -21.2362 70.2945 -104.994 7.35827 -10.9913 7.35827 10.9913 70.2934 104.994 14.2193 21.2362 -21.5764 0 -35.426 0zm172.147 94.4351l0 269.854 0 9.58465 -7.33229 0 -38.289 0 -7.33229 0 0 -9.58465 0 -269.854 -25.6477 0 -16.1256 0 10.6264 -15.8728 52.539 -78.4737 5.5004 -8.21457 5.49922 8.21457 52.5378 78.4737 10.6276 15.8728 -16.1268 0 -26.4768 0zm-365.306 0l0 269.854 0 9.58465 -7.33347 0 -38.2878 0 -7.33347 0 0 -9.58465 0 -269.854 -25.6465 0 -16.1256 0 10.6264 -15.8728 52.539 -78.4737 5.49922 -8.21457 5.49922 8.21457 52.539 78.4737 10.6264 15.8728 -16.1256 0 -26.4768 0z"/>
   </g>
  </g>
  <path class="fil2" d="M1024 0c565.541,0 1024,458.459 1024,1024 0,565.541 -458.459,1024 -1024,1024 -565.541,0 -1024,-458.459 -1024,-1024 0,-565.541 458.459,-1024 1024,-1024z"/>
  <path class="fil3" d="M1300.48 573.198c64.9276,3.25748 122.394,32.5311 162.812,77.2205 40.4221,44.6953 63.7973,104.754 60.5434,169.582 -3.22677,64.2697 -31.8307,119.702 -75.6473,159.331 -44.5689,40.3087 -104.867,64.1351 -170.022,64.0241l-551.84 -0.94252c-3.58229,-0.00590552 -6.74056,-0.0791339 -9.47599,-0.216142 -55.1398,-2.76732 -103.613,-28.4492 -138.195,-67.2024 -34.2378,-38.3681 -54.8906,-89.7402 -54.7985,-144.367 0.00708662,-3.85866 0.0874016,-7.33229 0.240945,-10.4043 2.93386,-58.4563 29.289,-110.193 69.5256,-146.583 40.2414,-36.3933 94.3111,-57.4394 152.665,-54.5103 12.1205,0.607087 23.7378,2.16024 34.7929,4.57323 1.8378,0.401575 3.67087,0.829134 5.49567,1.28032 10.7787,-43.7244 35.0221,-81.8623 67.891,-110.023 39.7276,-34.0394 92.0422,-53.517 148.383,-50.6894 47.217,2.37047 90.0509,20.0185 123.956,47.9174 26.8736,22.115 48.1347,50.6717 61.5225,83.165 12.6933,-5.99646 26.0103,-10.8945 39.8197,-14.5772 22.9701,-6.12402 47.2867,-8.83465 72.3319,-7.57678z"/>
  <path class="fil4" d="M1235.59 612.484c59.5028,2.98583 112.168,29.8134 149.208,70.7682 37.0441,40.9607 58.467,96.0013 55.4847,155.412 -2.9563,58.8993 -29.1709,109.7 -69.326,146.017 -40.8461,36.9402 -96.104,58.7752 -155.816,58.6737l-505.728 -0.864568c-3.28347,-0.00472441 -6.17717,-0.0720473 -8.68465,-0.197244 -50.5323,-2.53701 -94.9548,-26.0717 -126.647,-61.5874 -31.3772,-35.1614 -50.3044,-82.2414 -50.2193,-132.305 0.00590552,-3.53504 0.080315,-6.7193 0.220866,-9.53387 2.68937,-53.5713 26.8418,-100.987 63.7158,-134.335 36.8788,-33.352 86.4308,-52.6394 139.909,-49.9548 11.1071,0.5563 21.7547,1.97953 31.8851,4.19055 1.68543,0.368504 3.36378,0.759449 5.03741,1.17402 9.87757,-40.0713 32.0953,-75.0225 62.217,-100.831 36.4087,-31.1953 84.352,-49.0453 135.984,-46.4528 43.2733,2.17087 82.5272,18.3449 113.599,43.9134 24.6284,20.2666 44.113,46.4363 56.3823,76.2154 11.6327,-5.49567 23.837,-9.98387 36.4925,-13.3595 21.0508,-5.6126 43.3347,-8.09646 66.2871,-6.94371z"/>
  <polygon class="fil5" points="1055.48,1210.13 1055.48,1571.18 1055.48,1584 1045.66,1584 994.437,1584 984.626,1584 984.626,1571.18 984.626,1210.13 950.312,1210.13 928.736,1210.13 942.954,1188.89 1013.25,1083.9 1020.61,1072.91 1027.96,1083.9 1098.26,1188.89 1112.48,1210.13 1090.9,1210.13 "/>
  <polygon class="fil5" points="1227.62,1304.56 1227.62,1574.42 1227.62,1584 1220.29,1584 1182,1584 1174.67,1584 1174.67,1574.42 1174.67,1304.56 1149.02,1304.56 1132.9,1304.56 1143.52,1288.69 1196.06,1210.22 1201.56,1202 1207.06,1210.22 1259.6,1288.69 1270.23,1304.56 1254.1,1304.56 "/>
  <polygon class="fil5" points="862.316,1304.56 862.316,1574.42 862.316,1584 854.983,1584 816.695,1584 809.362,1584 809.362,1574.42 809.362,1304.56 783.715,1304.56 767.59,1304.56 778.216,1288.69 830.755,1210.22 836.254,1202 841.753,1210.22 894.292,1288.69 904.92,1304.56 888.793,1304.56 "/>
 </g>
</svg>
