<?xml version="1.0" encoding="UTF-8"?>
<svg xmlns="http://www.w3.org/2000/svg" xmlns:xlink="http://www.w3.org/1999/xlink" viewBox="0 0 256 256" width="256px" height="256px">
<g id="surface4513055">
<path style=" stroke:none;fill-rule:nonzero;fill:rgb(60.784316%,6.666667%,11.764706%);fill-opacity:1;" d="M 3.949219 128 C 3.949219 59.5 59.5 3.949219 128 3.949219 C 196.5 3.949219 252.050781 59.5 252.050781 128 C 252.050781 196.5 196.5 252.050781 128 252.050781 C 59.5 252.050781 3.949219 196.5 3.949219 128 Z M 3.949219 128 "/>
<path style=" stroke:none;fill-rule:nonzero;fill:rgb(96.078432%,96.078432%,96.078432%);fill-opacity:1;" d="M 171.398438 59.351562 L 84.5 59.351562 L 36 108.398438 L 128.101562 215 L 220 108.398438 Z M 171.398438 59.351562 "/>
<path style=" stroke:none;fill-rule:nonzero;fill:rgb(60.784316%,6.666667%,11.764706%);fill-opacity:1;" d="M 211.050781 108.300781 L 128.101562 204.601562 L 44.949219 108.300781 L 87.449219 66.5 L 168.5 66.5 Z M 211.050781 108.300781 "/>
<path style=" stroke:none;fill-rule:nonzero;fill:rgb(100%,100%,100%);fill-opacity:1;" d="M 124.699219 205.75 L 86.949219 107.148438 L 86.898438 106.75 L 83.898438 66.898438 L 90.949219 66.101562 L 93.949219 105.550781 L 131.5 203.398438 Z M 124.699219 205.75 "/>
<path style=" stroke:none;fill-rule:nonzero;fill:rgb(100%,100%,100%);fill-opacity:1;" d="M 131.148438 205.75 L 124.398438 203.398438 L 161.898438 105.601562 L 164.898438 66.101562 L 171.949219 66.898438 L 168.898438 107.199219 L 168.75 107.601562 Z M 131.148438 205.75 "/>
<path style=" stroke:none;fill-rule:nonzero;fill:rgb(100%,100%,100%);fill-opacity:1;" d="M 162.101562 110.601562 L 125.148438 65.199219 L 130.851562 60.601562 L 167.800781 106 Z M 162.101562 110.601562 "/>
<path style=" stroke:none;fill-rule:nonzero;fill:rgb(100%,100%,100%);fill-opacity:1;" d="M 93.898438 110.601562 L 88.199219 106 L 125.148438 60.601562 L 130.851562 65.199219 Z M 93.898438 110.601562 "/>
<path style=" stroke:none;fill-rule:nonzero;fill:rgb(100%,100%,100%);fill-opacity:1;" d="M 44.949219 104.449219 L 211.25 104.449219 L 211.25 112.199219 L 44.949219 112.199219 Z M 44.949219 104.449219 "/>
</g>
</svg>
