<?xml version="1.0" encoding="UTF-8"?>
<svg
  xmlns="http://www.w3.org/2000/svg"
  stroke="none"
  fill="white"
  viewBox="0 0 100 100"
  width="100px"
  height="100px"
>
  <path
    d="M 23 13 C 18.589844 13 15 16.589844 15 21 L 15 69 C 15 73.410156 18.589844 77 23 77 L 34 77 L 34 79 C 34 83.410156 37.589844 87 42 87 L 77 87 C 81.410156 87 85 83.410156 85 79 L 85 31 C 85 26.589844 81.410156 23 77 23 L 66 23 L 66 21 C 66 16.589844 62.410156 13 58 13 Z M 23 15 L 58 15 C 61.308594 15 64 17.691406 64 21 L 64 23 L 42 23 C 37.589844 23 34 26.589844 34 31 L 34 71 L 23.5 71 C 22.121094 71 21 69.878906 21 68.5 L 21 21.5 C 21 20.121094 22.121094 19 23.5 19 L 25.5 19 C 25.777344 19 26 18.777344 26 18.5 C 26 18.222656 25.777344 18 25.5 18 L 23.5 18 C 21.570312 18 20 19.570312 20 21.5 L 20 68.5 C 20 70.429688 21.570312 72 23.5 72 L 34 72 L 34 75 L 23 75 C 19.691406 75 17 72.308594 17 69 L 17 21 C 17 17.691406 19.691406 15 23 15 Z M 28.5 18 C 28.222656 18 28 18.222656 28 18.5 C 28 18.777344 28.222656 19 28.5 19 L 52.5 19 C 52.777344 19 53 18.777344 53 18.5 C 53 18.222656 52.777344 18 52.5 18 Z M 42 25 L 77 25 C 80.308594 25 83 27.691406 83 31 L 83 79 C 83 82.308594 80.308594 85 77 85 L 42 85 C 38.691406 85 36 82.308594 36 79 L 36 31 C 36 27.691406 38.691406 25 42 25 Z M 42.5 28 C 40.570312 28 39 29.570312 39 31.5 L 39 78.5 C 39 80.429688 40.570312 82 42.5 82 L 76.5 82 C 78.429688 82 80 80.429688 80 78.5 L 80 71.5 C 80 71.222656 79.777344 71 79.5 71 C 79.222656 71 79 71.222656 79 71.5 L 79 78.5 C 79 79.878906 77.878906 81 76.5 81 L 42.5 81 C 41.121094 81 40 79.878906 40 78.5 L 40 31.5 C 40 30.121094 41.121094 29 42.5 29 L 44.5 29 C 44.777344 29 45 28.777344 45 28.5 C 45 28.222656 44.777344 28 44.5 28 Z M 47.5 28 C 47.222656 28 47 28.222656 47 28.5 C 47 28.777344 47.222656 29 47.5 29 L 71.5 29 C 71.777344 29 72 28.777344 72 28.5 C 72 28.222656 71.777344 28 71.5 28 Z M 74.984375 46.984375 C 74.9375 46.988281 74.886719 46.992188 74.839844 47 L 68 47 C 67.640625 46.996094 67.304688 47.183594 67.121094 47.496094 C 66.941406 47.808594 66.941406 48.191406 67.121094 48.503906 C 67.304688 48.816406 67.640625 49.003906 68 49 L 72.648438 49 L 61.988281 60.074219 L 53.707031 51.792969 C 53.515625 51.601562 53.257812 51.496094 52.984375 51.5 C 52.714844 51.503906 52.460938 51.617188 52.273438 51.8125 L 43.773438 60.8125 C 43.527344 61.070312 43.4375 61.441406 43.542969 61.785156 C 43.644531 62.128906 43.921875 62.390625 44.269531 62.472656 C 44.617188 62.554688 44.980469 62.445312 45.226562 62.1875 L 53.023438 53.9375 L 61.292969 62.207031 C 61.484375 62.398438 61.742188 62.503906 62.007812 62.5 C 62.277344 62.496094 62.535156 62.386719 62.722656 62.195312 L 74 50.480469 L 74 55 C 73.996094 55.359375 74.183594 55.695312 74.496094 55.878906 C 74.808594 56.058594 75.191406 56.058594 75.503906 55.878906 C 75.816406 55.695312 76.003906 55.359375 76 55 L 76 48 C 76 47.980469 76 47.964844 76 47.945312 C 75.976562 47.402344 75.527344 46.980469 74.984375 46.988281 Z M 79.5 60 C 79.222656 60 79 60.222656 79 60.5 L 79 61.5 C 79 61.777344 79.222656 62 79.5 62 C 79.777344 62 80 61.777344 80 61.5 L 80 60.5 C 80 60.222656 79.777344 60 79.5 60 Z M 79.5 64 C 79.222656 64 79 64.222656 79 64.5 L 79 68.5 C 79 68.777344 79.222656 69 79.5 69 C 79.777344 69 80 68.777344 80 68.5 L 80 64.5 C 80 64.222656 79.777344 64 79.5 64 Z M 79.5 64 "/>
</svg>
