<svg fill="#000000" xmlns="http://www.w3.org/2000/svg"  viewBox="0 0 100 100" width="50px" height="50px"><path fill="none" stroke="#000000" stroke-linecap="round" stroke-linejoin="round" stroke-miterlimit="10" d="M64.976,26.5	c-2.483-1.218-5.161-2.097-7.976-2.578"/><path fill="none" stroke="#000000" stroke-linecap="round" stroke-linejoin="round" stroke-miterlimit="10" d="M76.788,69	c2.981-4.609,4.712-10.102,4.712-16c0-4.865-1.178-9.455-3.263-13.5"/><path fill="none" stroke="#000000" stroke-linecap="round" stroke-linejoin="round" stroke-miterlimit="10" d="M46.5,24.012	C34.618,26.252,25.252,35.618,23.012,47.5"/><path fill="none" stroke="#000000" stroke-linecap="round" stroke-linejoin="round" stroke-miterlimit="10" d="M29.021,71.5	c5.407,6.708,13.692,11,22.979,11c5.686,0,10.996-1.609,15.5-4.396"/><path fill="none" stroke="#000000" stroke-linecap="round" stroke-linejoin="round" stroke-miterlimit="10" d="M24.063,62.5	c0.594,1.746,1.346,3.418,2.241,5"/><path fill="none" stroke="#000000" stroke-linecap="round" stroke-linejoin="round" stroke-miterlimit="10" d="M23.012,58.5	c0.127,0.675,0.278,1.342,0.45,2"/><polyline fill="none" stroke="#000000" stroke-linejoin="round" stroke-miterlimit="10" points="17,52.5 52,52.5 52,18"/><line x1="76" x2="52" y1="77.5" y2="52.5" fill="none" stroke="#000000" stroke-linejoin="round" stroke-miterlimit="10"/><path fill="none" stroke="#000000" stroke-linejoin="round" stroke-miterlimit="10" stroke-width="2" d="M52,18	c-19.33,0-35,15.67-35,35s15.67,35,35,35s35-15.67,35-35S71.33,18,52,18z"/></svg>