<svg fill="#000000" xmlns="http://www.w3.org/2000/svg"  viewBox="0 0 100 100" width="50px" height="50px"><path fill="none" stroke="#000000" stroke-linecap="round" stroke-miterlimit="10" stroke-width="2" d="M73,71v6c0,3.314-2.686,6-6,6	H28c-3.314,0-6-2.686-6-6V23c0-3.314,2.686-6,6-6h39c3.314,0,6,2.686,6,6v6"/><polygon fill="none" stroke="#000000" stroke-linejoin="round" stroke-miterlimit="10" stroke-width="2" points="40,54 74,54 68,60 73,65 88,50 73,35 68,40 74,46 40,46"/><path fill="none" stroke="#000000" stroke-linecap="round" stroke-miterlimit="10" d="M48.5,22.5h-17c-2.209,0-4,1.791-4,4v47	c0,2.209,1.791,4,4,4h32c2.209,0,4-1.791,4-4v-3"/><line x1="54.5" x2="50.5" y1="22.5" y2="22.5" fill="none" stroke="#000000" stroke-linecap="round" stroke-miterlimit="10"/><line x1="57.5" x2="56.5" y1="22.5" y2="22.5" fill="none" stroke="#000000" stroke-linecap="round" stroke-miterlimit="10"/></svg>