<svg fill="#000000" xmlns="http://www.w3.org/2000/svg"  viewBox="0 0 100 100" width="50px" height="50px"><path d="M54,84h-8c-0.552,0-1-0.447-1-1V46.566l-8.685,8.172c-0.393,0.371-1.01,0.359-1.393-0.022l-5.65-5.66c-0.189-0.189-0.295-0.447-0.292-0.715c0.002-0.269,0.112-0.524,0.305-0.71l20.02-19.347c0.388-0.375,1.002-0.375,1.39,0l20.02,19.347c0.193,0.186,0.303,0.441,0.305,0.71c0.002,0.268-0.103,0.525-0.292,0.715l-5.65,5.66c-0.382,0.382-0.999,0.394-1.393,0.022L55,46.566V83C55,83.553,54.552,84,54,84z M47,82h6V44.253c0-0.399,0.237-0.76,0.604-0.918c0.365-0.156,0.791-0.084,1.082,0.189l9.663,9.092l4.246-4.254L50,30.394L31.406,48.362l4.246,4.254l9.663-9.092c0.291-0.273,0.718-0.349,1.082-0.189C46.763,43.493,47,43.854,47,44.253V82z"/><path d="M25,30h-6c-0.552,0-1-0.447-1-1V15c0-0.553,0.448-1,1-1h62c0.552,0,1,0.447,1,1v13c0,0.553-0.448,1-1,1h-6c-0.552,0-1-0.447-1-1v-6H26v7C26,29.553,25.552,30,25,30z M20,28h4v-7c0-0.553,0.448-1,1-1h50c0.552,0,1,0.447,1,1v6h4V16H20V28z"/><path d="M60.5 25h-31c-.276 0-.5-.224-.5-.5s.224-.5.5-.5h31c.276 0 .5.224.5.5S60.776 25 60.5 25zM66.5 25h-3c-.276 0-.5-.224-.5-.5s.224-.5.5-.5h3c.276 0 .5.224.5.5S66.776 25 66.5 25zM70.5 25h-2c-.276 0-.5-.224-.5-.5s.224-.5.5-.5h2c.276 0 .5.224.5.5S70.776 25 70.5 25z"/></svg>