<svg
  fill="white"
  stroke="white"
  xmlns="http://www.w3.org/2000/svg"
  viewBox="0 0 100 100"
  width="50px"
  height="50px"
>
  <path
    fill="none"
    stroke-linecap="round"
    stroke-miterlimit="10"
    stroke-width="2"
    d="M73,60v17	c0,3.314-2.686,6-6,6H28c-3.314,0-6-2.686-6-6V23c0-3.314,2.686-6,6-6h39c3.314,0,6,2.686,6,6v17"
  />
  <polygon fill="none" stroke-linejoin="round"
           stroke-miterlimit="10" stroke-width="2"
           points="86,54 52,54 58,60 53,65 38,50 53,35 58,40 52,46 86,46"/>
  <line x1="67.5" x2="67.5" y1="40.5" y2="36.5" fill="none"
        stroke-linecap="round" stroke-miterlimit="10"/>
  <path fill="none" stroke-linecap="round"
        stroke-miterlimit="10"
        d="M53.5,22.5h-22c-2.209,0-4,1.791-4,4v47	c0,2.209,1.791,4,4,4h32c2.209,0,4-1.791,4-4v-14"/>
  <line x1="67.5" x2="67.5" y1="34.5" y2="33.5" fill="none"
        stroke-linecap="round" stroke-miterlimit="10"/>
</svg>
