<svg
  fill="white"
  xmlns="http://www.w3.org/2000/svg"
  viewBox="0 0 100 100"
  width="50px"
  height="50px"
>
  <path
    d="M42.215,84.194c-0.062,0-0.125-0.007-0.187-0.021c-3.624-0.837-7.083-2.248-10.283-4.193c-0.427-0.26-0.597-0.795-0.397-1.254c1.484-3.409,1.029-6.21-1.39-8.563c-2.361-2.297-5.14-2.689-8.494-1.196c-0.454,0.201-0.989,0.041-1.255-0.383c-1.992-3.182-3.445-6.622-4.319-10.226c-0.118-0.486,0.143-0.985,0.609-1.167c3.561-1.385,5.252-3.724,5.17-7.152c-0.078-3.291-1.8-5.509-5.264-6.779c-0.473-0.173-0.742-0.671-0.63-1.161c0.832-3.643,2.243-7.116,4.192-10.323c0.264-0.433,0.811-0.603,1.272-0.389c3.465,1.595,6.317,1.182,8.724-1.266c2.375-2.414,2.742-5.249,1.125-8.665c-0.218-0.458-0.057-1.007,0.373-1.275c3.129-1.958,6.592-3.41,10.292-4.315c0.496-0.121,0.999,0.148,1.175,0.624c1.428,3.846,3.93,5.578,7.664,5.307c3.083-0.228,5.223-2.017,6.358-5.319c0.166-0.485,0.672-0.766,1.172-0.648c3.64,0.845,7.117,2.278,10.334,4.259c0.431,0.266,0.596,0.811,0.384,1.271c-1.602,3.477-1.201,6.331,1.226,8.728c2.415,2.385,5.233,2.774,8.613,1.19c0.399-0.188,0.88-0.089,1.175,0.245c1.433,1.628,4.133,8.133,4.377,10.545c0.045,0.447-0.214,0.87-0.634,1.033c-3.559,1.38-5.254,3.716-5.182,7.143c0.067,3.254,1.765,5.474,5.189,6.785c0.469,0.179,0.731,0.677,0.615,1.165c-0.856,3.604-2.291,7.049-4.264,10.239c-0.261,0.42-0.791,0.589-1.242,0.394c-3.684-1.568-6.633-0.983-9.013,1.791c-1.947,2.27-2.223,4.886-0.843,7.997c0.198,0.446,0.044,0.972-0.364,1.24l-0.11,0.074c-0.108,0.074-0.229,0.155-0.353,0.229c-2.915,1.736-6.063,3.038-9.358,3.871c-1.085,0.277-1.586-0.324-1.81-0.878c-1.189-2.959-3.742-4.716-6.842-4.716c-0.034,0-0.069,0-0.104,0.001c-2.938,0.037-5.472,1.909-6.614,4.886c-0.026,0.072-0.065,0.152-0.117,0.25C43.009,83.926,42.611,84.194,42.215,84.194z M33.511,78.7c2.571,1.477,5.311,2.593,8.163,3.328c1.558-3.432,4.65-5.549,8.22-5.594c3.845-0.021,7.062,2.021,8.651,5.558c2.901-0.772,5.623-1.901,8.159-3.375c-1.282-3.471-0.777-6.673,1.48-9.305c2.757-3.213,6.372-4.123,10.5-2.646c1.496-2.56,2.631-5.282,3.384-8.115c-3.673-1.665-5.573-4.442-5.652-8.268c-0.084-3.991,1.883-6.994,5.699-8.73c-0.498-2.171-2.221-6.354-3.348-8.137c-3.814,1.519-7.297,0.867-10.106-1.907c-2.813-2.779-3.493-6.276-1.989-10.159c-2.57-1.493-5.308-2.622-8.156-3.365c-1.485,3.538-4.158,5.54-7.776,5.806c-4.316,0.328-7.536-1.672-9.346-5.767c-2.894,0.784-5.624,1.928-8.136,3.406c1.521,3.821,0.884,7.296-1.868,10.094c-2.784,2.831-6.278,3.526-10.151,2.033c-1.471,2.567-2.582,5.305-3.313,8.16c3.673,1.617,5.653,4.463,5.744,8.275c0.094,3.973-1.847,6.97-5.626,8.715c0.766,2.83,1.915,5.548,3.425,8.099c3.746-1.395,7.15-0.736,9.885,1.924C34.153,71.453,34.891,74.885,33.511,78.7z"/>
  <path
    d="M49.99,56.333L49.99,56.333c-3.508-0.017-6.348-2.874-6.332-6.369c0.008-1.695,0.675-3.282,1.879-4.469c1.211-1.196,2.826-1.833,4.541-1.828c1.71,0.016,3.306,0.703,4.492,1.936c1.19,1.236,1.819,2.863,1.771,4.583c-0.098,3.428-2.886,6.128-6.347,6.147C49.993,56.333,49.991,56.333,49.99,56.333z M50.014,44.667c-1.429,0-2.768,0.545-3.775,1.54c-1.014,0.998-1.574,2.334-1.581,3.761c-0.014,2.943,2.379,5.35,5.333,5.365c2.917-0.018,5.268-2.291,5.35-5.177c0.041-1.448-0.488-2.819-1.49-3.86c-0.999-1.037-2.343-1.615-3.782-1.629C50.05,44.667,50.032,44.667,50.014,44.667z"/>
  <path
    d="M49.991 67.791c-3.142 0-6.237-.844-9.01-2.49-4.063-2.415-6.944-6.268-8.11-10.85-1.166-4.581-.479-9.342 1.936-13.406 2.415-4.064 6.268-6.944 10.85-8.11 4.58-1.167 9.344-.478 13.406 1.936 4.064 2.415 6.944 6.268 8.11 10.85 1.167 4.581.479 9.342-1.936 13.406-2.415 4.063-6.268 6.944-10.85 8.11l0 0C52.931 67.608 51.456 67.791 49.991 67.791zM50.02 33.378c-1.361 0-2.742.167-4.12.518-4.324 1.102-7.961 3.82-10.24 7.656s-2.929 8.33-1.828 12.655c1.102 4.324 3.82 7.961 7.656 10.24 3.836 2.279 8.328 2.928 12.655 1.828l0 0c4.324-1.102 7.961-3.82 10.24-7.656 2.279-3.837 2.929-8.331 1.828-12.655C64.29 38.415 57.476 33.378 50.02 33.378zM29.622 43.274c-.056 0-.112-.01-.168-.029-.258-.093-.392-.377-.299-.635 2.496-6.949 8.253-12.184 15.399-14.002.271-.067.536.093.603.358.067.266-.093.535-.358.603-6.826 1.737-12.325 6.738-14.71 13.377C30.016 43.148 29.825 43.274 29.622 43.274z"/>
  <path
    d="M50.532 71.941c-2.229 0-4.499-.327-6.749-.996-7.674-2.279-13.37-8.033-15.239-15.392-.067-.266.093-.535.358-.603.271-.069.536.094.603.358 1.782 7.017 7.226 12.506 14.561 14.685 7.39 2.197 15.009.55 20.382-4.401.2-.186.515-.173.701.029.186.201.173.515-.029.701C61.127 70.001 55.957 71.941 50.532 71.941zM67.544 63.339c-.102 0-.203-.03-.291-.094-.222-.161-.271-.471-.111-.693.53-.731 1.021-1.51 1.459-2.312.132-.241.437-.326.673-.198.241.132.329.433.198.673-.458.84-.972 1.653-1.525 2.42C67.848 63.268 67.697 63.339 67.544 63.339zM69.91 59.184c-.066 0-.133-.013-.197-.041-.251-.108-.367-.401-.258-.652.517-1.193.926-2.441 1.216-3.709.061-.268.325-.436.594-.373.268.061.435.327.373.594-.303 1.327-.731 2.634-1.272 3.883C70.284 59.073 70.101 59.184 69.91 59.184zM71.019 45.237c-.222 0-.424-.149-.48-.374-1.757-6.902-6.827-12.427-13.563-14.776-.259-.091-.396-.373-.306-.632.09-.26.376-.396.632-.306 7.052 2.46 12.358 8.243 14.197 15.47.067.266-.093.535-.358.603C71.1 45.232 71.059 45.237 71.019 45.237z"/>
  <path
    d="M57.725 35.202c-.225 0-.427-.152-.482-.38-.064-.266.1-.534.366-.599l5.759-1.394c.268-.061.533.1.599.366.064.266-.1.534-.366.599l-5.759 1.394C57.802 35.197 57.763 35.202 57.725 35.202zM62.745 38.511c-.238 0-.448-.172-.488-.415-.045-.271.138-.525.408-.57l4.332-.716c.262-.051.525.137.57.408.045.271-.138.525-.408.57l-4.332.716C62.799 38.509 62.772 38.511 62.745 38.511zM65.553 42.955c-.25 0-.465-.188-.492-.443-.029-.271.168-.517.44-.546l4.394-.474c.254-.032.517.166.546.44.029.271-.168.517-.44.546l-4.394.474C65.589 42.954 65.572 42.955 65.553 42.955zM42.205 34.839c-.25 0-.465-.188-.492-.443l-.434-4.021c-.029-.271.168-.517.44-.546.252-.028.517.167.546.44l.434 4.021c.029.271-.168.517-.44.546C42.241 34.838 42.223 34.839 42.205 34.839zM38.825 37.517c-.214 0-.411-.139-.476-.354l-1.326-4.445c-.078-.263.071-.539.334-.617.263-.075.539.07.617.334l1.326 4.445c.078.263-.071.539-.334.617C38.92 37.51 38.872 37.517 38.825 37.517zM35.823 40.87c-.159 0-.315-.076-.411-.219l-2.612-3.87c-.153-.227-.094-.535.134-.688.227-.154.535-.095.688.134l2.612 3.87c.153.227.094.535-.134.688C36.015 40.843 35.919 40.87 35.823 40.87zM30.09 58.691c-.263 0-.481-.205-.495-.471-.015-.273.195-.507.47-.521l4.455-.231c.304-.015.507.196.521.47.015.273-.195.507-.47.521l-4.455.231C30.107 58.691 30.098 58.691 30.09 58.691zM32.774 63.528c-.214 0-.411-.139-.476-.354-.078-.263.071-.539.334-.617l4.324-1.29c.261-.076.539.071.617.334s-.071.539-.334.617l-4.324 1.29C32.869 63.521 32.821 63.528 32.774 63.528zM37.424 67.573c-.18 0-.354-.099-.441-.27-.125-.243-.029-.543.215-.668l3.65-1.875c.24-.123.542-.029.668.215.125.243.029.543-.215.668l-3.65 1.875C37.579 67.555 37.502 67.573 37.424 67.573zM43.379 70.357c-.131 0-.261-.052-.358-.153-.189-.198-.183-.512.016-.701l2.697-2.579c.197-.189.512-.182.701.016.189.198.183.512-.016.701l-2.697 2.579C43.626 70.311 43.502 70.357 43.379 70.357zM49.803 71.917c-.08 0-.16-.019-.234-.059-.241-.13-.332-.431-.203-.672l2.095-3.901c.131-.243.434-.332.672-.203.241.13.332.431.203.672l-2.095 3.901C50.151 71.823 49.98 71.917 49.803 71.917zM56.738 70.801c-.014 0-.027-.001-.041-.002-.272-.021-.477-.261-.454-.534l.329-4.102c.021-.272.267-.473.534-.454.272.021.477.261.454.534l-.329 4.102C57.211 70.604 56.994 70.801 56.738 70.801zM46.886 29.094c-.244 0-.456-.181-.49-.429-.037-.271.152-.521.424-.559 1.346-.185 2.718-.245 4.082-.178.273.013.484.245.471.52-.013.272-.208.506-.52.471-1.3-.063-2.613-.005-3.898.17C46.931 29.092 46.909 29.094 46.886 29.094z"/>
</svg>
