<svg
  fill="white"
  xmlns="http://www.w3.org/2000/svg"
  viewBox="0 0 100 100"
  width="100px"
  height="100px"
>
  <path
    d="M 62.492188 14.992188 A 0.50005 0.50005 0 0 0 62 15.5 L 62 18 L 35 18 A 1.0001 1.0001 0 0 0 34 19 L 34 23 A 1.0001 1.0001 0 0 0 35 24 L 36 24 L 36 44 L 33.972656 44 L 30.275391 41.033203 C 26.825013 38.264889 23.889333 37 20 37 C 14.044626 37 9 40.90643 9 46 L 9 59.5 C 9 61.421188 10.578812 63 12.5 63 L 13 63 L 13 81 C 13 83.197334 14.802666 85 17 85 C 18.210938 85 19.264444 84.423754 20 83.564453 C 20.735556 84.423754 21.789062 85 23 85 C 25.197334 85 27 83.197334 27 81 L 27 47.816406 C 27.55336 48.166791 27.722422 48.274684 28.449219 48.734375 C 29.197372 49.207574 29.947917 49.681199 30.515625 50.039062 C 30.799479 50.217995 31.036614 50.367887 31.207031 50.474609 C 31.292241 50.527969 31.360047 50.57057 31.410156 50.601562 C 31.435206 50.617063 31.456149 50.629465 31.474609 50.640625 C 31.483809 50.646225 31.491686 50.651093 31.503906 50.658203 C 31.516126 50.665303 31.620109 50.716377 31.621094 50.716797 C 32.055834 50.90272 32.525307 51 33 51 L 36 51 L 36 54 C 36 59.511334 40.488666 64 46 64 L 62 64 L 62 70.007812 C 57.968404 70.050646 54.323291 70.600528 51.578125 71.515625 C 50.1485 71.992189 48.958699 72.559798 48.060547 73.267578 C 47.162394 73.975358 46.5 74.904341 46.5 76 A 1.0001 1.0001 0 0 0 47.5 77 L 77.5 77 A 1.0001 1.0001 0 0 0 78.5 76 C 78.5 74.904341 77.837606 73.975358 76.939453 73.267578 C 76.041301 72.559798 74.8515 71.992189 73.421875 71.515625 C 70.676709 70.600528 67.031596 70.050646 63 70.007812 L 63 64 L 79 64 C 84.511334 64 89 59.511334 89 54 L 89 24 L 90 24 A 1.0001 1.0001 0 0 0 91 23 L 91 19 A 1.0001 1.0001 0 0 0 90 18 L 63 18 L 63 15.5 A 0.50005 0.50005 0 0 0 62.492188 14.992188 z M 36 20 L 89 20 L 89 22 L 88 22 A 1.0001 1.0001 0 0 0 87 23 L 87 54 C 87 58.430666 83.430666 62 79 62 L 46 62 C 41.569334 62 38 58.430666 38 54 L 38 51 L 39.5 51 C 41.421188 51 43 49.421188 43 47.5 C 43 45.578812 41.421188 44 39.5 44 L 38 44 L 38 23 L 74.5 23 A 0.50005 0.50005 0 1 0 74.5 22 L 37 22 L 36 22 L 36 20 z M 78.5 22 A 0.50005 0.50005 0 1 0 78.5 23 L 81.5 23 A 0.50005 0.50005 0 1 0 81.5 22 L 78.5 22 z M 83.5 22 A 0.50005 0.50005 0 1 0 83.5 23 L 84.5 23 A 0.50005 0.50005 0 1 0 84.5 22 L 83.5 22 z M 20 23 C 18.083334 23 16.518559 23.754756 15.501953 24.898438 C 14.485347 26.042119 14 27.527778 14 29 C 14 30.472222 14.485347 31.957882 15.501953 33.101562 C 16.518559 34.245244 18.083334 35 20 35 C 23.301865 35 26 32.301863 26 29 C 26 25.698137 23.301865 23 20 23 z M 20 25 C 22.220986 25 24 26.779015 24 29 C 24 31.220985 22.220986 33 20 33 C 18.583334 33 17.648107 32.504756 16.998047 31.773438 C 16.347987 31.042119 16 30.027778 16 29 C 16 27.972222 16.347987 26.957882 16.998047 26.226562 C 17.648107 25.495244 18.583334 25 20 25 z M 79.490234 34.996094 A 0.50005 0.50005 0 0 0 79.439453 35 L 74.5 35 A 0.50005 0.50005 0 1 0 74.5 36 L 78.292969 36 L 65.5 48.792969 L 55.853516 39.146484 A 0.50005 0.50005 0 0 0 55.146484 39.146484 L 45.146484 49.146484 A 0.50005 0.50005 0 1 0 45.853516 49.853516 L 55.5 40.207031 L 65.146484 49.853516 A 0.50005 0.50005 0 0 0 65.853516 49.853516 L 79 36.707031 L 79 40.5 A 0.50005 0.50005 0 1 0 80 40.5 L 80 35.556641 A 0.50005 0.50005 0 0 0 79.490234 34.996094 z M 20 39 C 23.484667 39 25.755814 39.972064 29.023438 42.59375 L 32.996094 45.779297 A 1.0001 1.0001 0 0 0 33.621094 46 L 36.832031 46 A 1.0001 1.0001 0 0 0 37.158203 46 L 39.5 46 C 40.340812 46 41 46.659188 41 47.5 C 41 48.340812 40.340812 49 39.5 49 L 37.167969 49 A 1.0001 1.0001 0 0 0 36.841797 49 L 33 49 C 32.806749 49 32.616784 48.95724 32.4375 48.884766 C 32.39426 48.857946 32.34218 48.824796 32.269531 48.779297 C 32.10239 48.674625 31.865037 48.526053 31.582031 48.347656 C 31.01602 47.990863 30.2653 47.515895 29.517578 47.042969 C 28.022135 46.097117 26.535156 45.154297 26.535156 45.154297 A 1.0001 1.0001 0 0 0 25 46 L 25 81 C 25 82.116666 24.116666 83 23 83 C 21.883334 83 21 82.116666 21 81 L 21 63 A 1.0001 1.0001 0 1 0 19 63 L 19 81 C 19 82.116666 18.116666 83 17 83 C 15.883334 83 15 82.116666 15 81 L 15 62.535156 A 0.50005 0.50005 0 0 0 15 62.5 L 15 62 L 15 46.5 A 0.50005 0.50005 0 0 0 14.492188 45.992188 A 0.50005 0.50005 0 0 0 14 46.5 L 14 61 L 12.5 61 C 11.659188 61 11 60.340812 11 59.5 L 11 46 C 11 42.25757 14.909374 39 20 39 z M 62.427734 72.001953 A 0.50005 0.50005 0 0 0 62.574219 72.001953 C 66.59633 72.008797 70.237162 72.562739 72.791016 73.414062 C 74.075891 73.842375 75.083152 74.35128 75.703125 74.839844 C 75.788555 74.907164 75.743175 74.936534 75.8125 75 L 49.1875 75 C 49.25683 74.93653 49.21145 74.90716 49.296875 74.839844 C 49.916848 74.35128 50.924109 73.842374 52.208984 73.414062 C 54.763256 72.5626 58.404839 72.008618 62.427734 72.001953 z"/>
</svg>
